<svg id="Livello_1" data-name="Livello 1" xmlns="http://www.w3.org/2000/svg" xmlns:xlink="http://www.w3.org/1999/xlink" viewBox="0 0 27.9 28.4"><defs><linearGradient id="linear-gradient" x1="2.23785" y1="7.51493" x2="24.24951" y2="20.22337" gradientUnits="userSpaceOnUse"><stop offset="0" stop-color="#e2e6f6"/><stop offset="1" stop-color="#6487d4"/></linearGradient></defs><title>18</title><circle cx="13.24376" cy="13.86941" r="12.70632" style="fill:url(#linear-gradient)"/><circle cx="13.24376" cy="13.86881" r="9.42614" style="fill:#fff"/><path d="M7.5152,11.95071H5.76351V10.634a3.54865,3.54865,0,0,0,1.48258-.28928,1.36433,1.36433,0,0,0,.79584-.99307H9.33579v8.39258H7.5152Z" style="fill:#092265"/><path d="M11.21375,11.41248a2.10459,2.10459,0,0,1,.66345-1.67712,2.66189,2.66189,0,0,1,1.80923-.57829,2.72964,2.72964,0,0,1,1.83821.56694,2.10658,2.10658,0,0,1,.65779,1.68847,2.17221,2.17221,0,0,1-.24029,1.03643,1.91548,1.91548,0,0,1-.8015.76117,2.08513,2.08513,0,0,1,.86427.84156,2.92065,2.92065,0,0,1,.22352,1.25365,2.67658,2.67658,0,0,1-.66373,2.0038,2.83806,2.83806,0,0,1-2.03844.641,2.02763,2.02763,0,0,1-1.56836-.52057,2.92368,2.92368,0,0,1-.63-1.00207,3.54886,3.54886,0,0,1-.1602-1.12218,2.95922,2.95922,0,0,1,.18888-1.18492,2.444,2.444,0,0,1,.86427-.88728,2.08841,2.08841,0,0,1-.77818-.74415A2.37488,2.37488,0,0,1,11.21375,11.41248Zm3.17139,3.81272a2.77863,2.77863,0,0,0-.12431-.93869q-.1233-.33216-.60788-.33231a.52633.52633,0,0,0-.53523.28631,1.91981,1.91981,0,0,0-.12969.77879v.24026a4.7754,4.7754,0,0,0,.02271.52091,2.28363,2.28363,0,0,0,.12372.48682q.10131.28644.54062.286a.5476.5476,0,0,0,.58037-.37206A2.95613,2.95613,0,0,0,14.38514,15.2252Zm-.71006-2.64482a.56931.56931,0,0,0,.55525-.29794,1.56959,1.56959,0,0,0,.15482-.73246,1.63025,1.63025,0,0,0-.14343-.70409.52455.52455,0,0,0-.52091-.30394.55167.55167,0,0,0-.54958.28093,1.78813,1.78813,0,0,0-.13746.77313,1.55553,1.55553,0,0,0,.14343.6924A.50825.50825,0,0,0,13.67508,12.58038Z" style="fill:#092265"/><path d="M18.54094,12.11091h1.317v2.11822H21.7703v1.31675H19.858v2.19834h-1.317V15.54588H16.6292V14.22913h1.91175Z" style="fill:#092265"/></svg>