<?xml version="1.0" encoding="UTF-8"?>
<svg xmlns="http://www.w3.org/2000/svg" xmlns:xlink="http://www.w3.org/1999/xlink" width="225.37pt" height="144.59pt" viewBox="0 0 225.37 144.59" version="1.1">
<defs>
<clipPath id="clip1">
  <path d="M 0 30 L 225.371094 30 L 225.371094 144.589844 L 0 144.589844 Z M 0 30 "/>
</clipPath>
</defs>
<g id="surface1">
<path style=" stroke:none;fill-rule:nonzero;fill:rgb(0%,58.799744%,25.099182%);fill-opacity:1;" d="M 80.652344 67.164063 C 51.074219 79.664063 30.320313 108.929688 30.320313 143.046875 L 11.378906 143.046875 C 11.378906 101.484375 36.414063 65.78125 72.234375 50.164063 "/>
<path style=" stroke:none;fill-rule:nonzero;fill:rgb(88.999939%,1.998901%,7.499695%);fill-opacity:1;" d="M 144.800781 67.164063 C 174.378906 79.664063 195.132813 108.929688 195.132813 143.046875 L 214.078125 143.046875 C 214.078125 101.082031 188.550781 65.09375 152.179688 49.714844 "/>
<path style=" stroke:none;fill-rule:nonzero;fill:rgb(100%,100%,100%);fill-opacity:1;" d="M 144.839844 67.078125 C 124.921875 58.496094 101.671875 57.734375 80.109375 66.84375 L 72.742188 49.402344 C 99.207031 38.222656 127.75 39.136719 152.210938 49.640625 "/>
<g clip-path="url(#clip1)" clip-rule="nonzero">
<path style=" stroke:none;fill-rule:nonzero;fill:rgb(7.798767%,25.498962%,57.998657%);fill-opacity:1;" d="M 212.570313 141.386719 L 196.832031 141.386719 C 196.644531 131.445313 194.726563 121.929688 191.371094 113.121094 L 205.75 106.675781 C 209.972656 117.457031 212.375 129.152344 212.570313 141.386719 M 127.71875 130.808594 C 126.746094 129.640625 125.636719 128.648438 124.402344 127.746094 L 148.390625 70.464844 C 156.421875 74.40625 163.710938 79.628906 169.976563 85.886719 C 176.058594 91.964844 181.15625 99.019531 185.058594 106.777344 Z M 113.1875 124.046875 C 112.144531 124.046875 111.144531 124.117188 110.152344 124.28125 L 84.679688 67.28125 C 93.449219 64.023438 102.929688 62.238281 112.835938 62.238281 C 122.636719 62.238281 132.027344 63.980469 140.71875 67.171875 L 115.226563 124.140625 C 114.5625 124.070313 113.855469 124.046875 113.1875 124.046875 M 98.339844 131.140625 L 40.554688 106.894531 C 44.464844 99.089844 49.582031 91.996094 55.699219 85.886719 C 61.898438 79.691406 69.105469 74.511719 77.042969 70.585938 L 101.238281 128.292969 C 100.15625 129.164063 99.210938 130.050781 98.339844 131.140625 M 28.84375 141.386719 L 13.105469 141.386719 C 13.296875 129.195313 15.683594 117.542969 19.878906 106.789063 L 34.261719 113.242188 C 30.933594 122.015625 29.027344 131.492188 28.84375 141.386719 M 42.304688 72.5 C 50.234375 64.578125 59.484375 57.984375 69.703125 53.082031 L 75.804688 67.632813 C 59.265625 75.765625 45.78125 89.15625 37.578125 105.644531 L 23.039063 99.546875 C 27.929688 89.46875 34.464844 80.335938 42.304688 72.5 M 112.835938 43.304688 C 125.390625 43.304688 137.398438 45.628906 148.464844 49.859375 L 142.023438 64.253906 C 132.929688 60.886719 123.101563 59.035156 112.835938 59.035156 C 102.46875 59.035156 92.542969 60.929688 83.375 64.359375 L 76.941406 49.960938 C 88.078125 45.664063 100.179688 43.304688 112.835938 43.304688 M 183.367188 72.5 C 191.175781 80.304688 197.695313 89.398438 202.578125 99.433594 L 188.035156 105.527344 C 179.785156 89.011719 166.238281 75.609375 149.628906 67.507813 L 155.71875 52.964844 C 166.035156 57.878906 175.375 64.511719 183.367188 72.5 M 225.054688 93.996094 C 224.226563 92.054688 222.011719 91.261719 220.058594 92.109375 L 205.535156 98.195313 C 195.324219 77.121094 178.128906 60.058594 156.953125 50.007813 L 163.03125 35.5 C 163.871094 33.566406 163.097656 31.359375 161.140625 30.515625 C 159.195313 29.671875 157.046875 30.609375 156.207031 32.558594 L 149.773438 46.929688 C 138.308594 42.523438 125.855469 40.101563 112.835938 40.101563 C 99.714844 40.101563 87.171875 42.558594 75.632813 47.03125 L 69.164063 32.558594 C 68.324219 30.609375 66.167969 29.671875 64.226563 30.515625 C 62.28125 31.359375 61.5 33.566406 62.332031 35.5 L 68.464844 50.128906 C 47.367188 60.210938 30.246094 77.261719 20.082031 98.304688 L 5.316406 92.109375 C 3.359375 91.261719 1.148438 92.054688 0.308594 93.996094 C -0.53125 95.945313 0.40625 98.082031 2.347656 98.929688 L 16.949219 105.476563 C 12.394531 117.101563 9.890625 129.753906 9.890625 142.992188 L 9.890625 144.589844 L 32.03125 144.589844 L 32.03125 142.992188 C 32.03125 132.976563 33.863281 123.398438 37.195313 114.554688 L 94.441406 140.226563 C 94.308594 141.109375 94.238281 142.054688 94.238281 142.972656 L 132.117188 142.972656 C 132.117188 141.898438 131.992188 140.835938 131.820313 139.8125 L 188.429688 114.4375 C 191.789063 123.3125 193.644531 132.933594 193.644531 142.992188 L 193.644531 144.589844 L 215.78125 144.589844 L 215.78125 142.992188 C 215.78125 129.707031 213.261719 117.015625 208.679688 105.359375 L 223.023438 98.929688 C 224.964844 98.082031 225.910156 95.945313 225.054688 93.996094 "/>
</g>
<path style=" stroke:none;fill-rule:nonzero;fill:rgb(7.798767%,25.498962%,57.998657%);fill-opacity:1;" d="M 122.847656 26.535156 L 129.378906 26.535156 L 130.195313 14.585938 C 130.34375 12.582031 130.195313 10.132813 130.195313 10.132813 L 130.269531 10.132813 C 130.269531 10.132813 131.160156 12.914063 131.753906 14.585938 L 134.535156 22.269531 L 140.101563 22.269531 L 142.886719 14.585938 C 143.480469 12.914063 144.371094 10.132813 144.371094 10.132813 L 144.445313 10.132813 C 144.445313 10.132813 144.296875 12.582031 144.445313 14.585938 L 145.261719 26.535156 L 151.753906 26.535156 L 149.601563 0.00390625 L 142.550781 0.00390625 L 138.691406 11.210938 C 138.097656 12.914063 137.355469 15.589844 137.355469 15.589844 L 137.28125 15.589844 C 137.28125 15.589844 136.539063 12.914063 135.945313 11.210938 L 132.085938 0.00390625 L 125.035156 0.00390625 "/>
<path style=" stroke:none;fill-rule:nonzero;fill:rgb(7.798767%,25.498962%,57.998657%);fill-opacity:1;" d="M 105.074219 20.96875 L 105.074219 5.570313 L 107.746094 5.570313 C 112.125 5.570313 114.980469 8.167969 114.980469 13.214844 C 114.980469 18.296875 112.234375 20.96875 107.746094 20.96875 Z M 98.582031 26.535156 L 108.003906 26.535156 C 116.355469 26.535156 121.699219 21.5625 121.699219 13.214844 C 121.699219 4.863281 116.355469 0.00390625 108.003906 0.00390625 L 98.582031 0.00390625 Z M 85.074219 6.050781 C 85.074219 6.050781 85.667969 8.945313 86.152344 10.617188 L 87.632813 15.773438 L 82.402344 15.773438 L 83.921875 10.617188 C 84.40625 8.945313 85 6.050781 85 6.050781 Z M 90.789063 26.535156 L 97.46875 26.535156 L 88.453125 0.00390625 L 81.625 0.00390625 L 72.605469 26.535156 L 79.285156 26.535156 L 80.878906 20.96875 L 89.15625 20.96875 "/>
</g>
</svg>
