<?xml version="1.0" encoding="UTF-8"?>
<svg xmlns="http://www.w3.org/2000/svg" xmlns:xlink="http://www.w3.org/1999/xlink" width="226.77pt" height="226.77pt" viewBox="0 0 226.77 226.77" version="1.1">
<g id="surface1">
<path style=" stroke:none;fill-rule:evenodd;fill:rgb(1.998901%,21.598816%,46.299744%);fill-opacity:1;" d="M 36.886719 191.871094 C 34.984375 191.871094 31.441406 191.226563 29.054688 186.933594 C 28.628906 186.15625 28.628906 186.15625 17.035156 158.914063 C 14.582031 153.175781 16.480469 147.542969 21.855469 144.558594 L 33.34375 138.195313 C 35.164063 137.1875 36.988281 136.675781 38.777344 136.675781 C 41.0625 136.675781 43.160156 137.484375 44.84375 138.972656 C 46.199219 137.78125 47.796875 136.757813 49.613281 135.949219 C 52.292969 134.753906 55.027344 134.148438 57.722656 134.148438 C 58.214844 134.148438 58.71875 134.171875 59.195313 134.214844 C 59.257813 134.214844 59.316406 134.222656 59.371094 134.222656 C 59.988281 134.296875 60.605469 134.429688 61.179688 134.597656 C 62.636719 132.382813 64.578125 130.636719 66.90625 129.480469 C 66.589844 128.898438 66.339844 128.273438 66.15625 127.617188 C 66.089844 127.386719 66.035156 127.15625 65.988281 126.925781 C 65.316406 123.097656 66.304688 119.785156 68.65625 117.496094 C 66.507813 115.984375 64.675781 113.828125 63.695313 110.683594 C 62.644531 111.167969 61.558594 111.582031 60.421875 111.929688 C 58.128906 112.628906 55.847656 112.984375 53.632813 112.984375 C 44.300781 112.984375 36.570313 106.679688 33.46875 96.515625 C 31.34375 89.574219 31.535156 82.226563 34.015625 75.832031 C 36.851563 68.507813 42.421875 63.25 49.683594 61.035156 C 51.789063 60.386719 54.097656 60.050781 56.363281 60.050781 C 58.804688 60.050781 61.058594 60.421875 63.035156 61.117188 C 64.175781 57.324219 67.246094 54.355469 71.242188 53.578125 C 71.914063 53.445313 72.59375 53.378906 73.261719 53.378906 C 77.535156 53.378906 81.175781 55.96875 82.59375 59.851563 C 86.496094 56.632813 91.363281 54.785156 96.523438 54.785156 C 98.0625 54.785156 99.621094 54.949219 101.152344 55.273438 C 103.726563 55.820313 106.046875 57.519531 108.796875 59.675781 C 109.042969 59.863281 109.34375 60.09375 109.566406 60.269531 C 112.707031 57.023438 116.785156 55.089844 121.222656 54.789063 C 121.789063 54.75 122.320313 54.726563 122.835938 54.726563 C 125.039063 54.726563 126.992188 55.070313 128.804688 55.785156 C 129.589844 56.097656 130.332031 56.492188 130.992188 56.945313 C 133.257813 55.386719 135.867188 54.519531 138.652344 54.460938 C 139.199219 54.453125 139.914063 54.421875 140.53125 54.394531 C 141.257813 54.363281 141.886719 54.34375 142.191406 54.34375 C 142.328125 54.34375 142.464844 54.347656 142.597656 54.351563 C 143.035156 54.324219 143.464844 54.320313 143.902344 54.320313 C 144.363281 54.320313 144.792969 54.324219 145.234375 54.347656 C 145.578125 54.355469 145.898438 54.367188 146.253906 54.367188 L 146.472656 54.363281 L 146.6875 54.363281 C 152.1875 54.363281 156.042969 58.171875 156.042969 63.621094 C 156.042969 63.996094 156.03125 64.054688 155.910156 65.398438 C 155.816406 66.46875 155.625 68.582031 155.242188 72.828125 C 157.09375 74.445313 158.21875 76.78125 158.269531 79.527344 C 158.28125 80.078125 158.25 80.613281 158.171875 81.132813 L 165.710938 81.132813 C 171.640625 81.132813 174.890625 84.457031 175.832031 88.148438 C 178.042969 85.070313 181.371094 83.347656 185.089844 83.347656 C 185.441406 83.347656 185.8125 83.363281 186.171875 83.390625 C 191.058594 83.820313 194.785156 87.136719 195.683594 91.855469 C 200.167969 115.109375 200.152344 115.308594 200.019531 116.8125 C 200.011719 116.902344 200 117.003906 199.988281 117.085938 C 200.640625 117.101563 201.292969 117.152344 201.933594 117.242188 C 207.347656 118.003906 210.335938 120.789063 211.894531 122.996094 C 213.988281 125.964844 214.792969 129.648438 214.230469 133.675781 C 214.15625 134.214844 214.042969 135.027344 213.777344 135.945313 C 213.453125 137.183594 212.960938 138.277344 212.316406 139.222656 C 212.390625 140.019531 212.363281 140.859375 212.238281 141.734375 C 212.207031 141.976563 212.152344 142.226563 212.09375 142.472656 C 211.550781 144.625 210.398438 146.371094 208.691406 147.65625 C 205.6875 150.09375 202.023438 151.378906 198.066406 151.378906 C 197.210938 151.378906 196.324219 151.3125 195.457031 151.195313 C 190.757813 150.527344 187.03125 148.054688 184.785156 144.484375 C 183.09375 147.246094 180.152344 148.902344 176.597656 148.902344 C 176.320313 148.902344 176.039063 148.898438 175.75 148.875 C 174.242188 148.769531 173.011719 148.398438 172.011719 147.921875 C 170.660156 148.621094 169.113281 149.035156 167.425781 149.097656 C 167.179688 149.101563 166.953125 149.109375 166.722656 149.109375 C 164.601563 149.109375 162.859375 148.753906 161.421875 148.171875 C 159.710938 149.035156 157.910156 149.535156 156.113281 149.601563 C 155.976563 149.601563 155.828125 149.605469 155.695313 149.605469 C 151.6875 149.605469 148.140625 147.667969 145.675781 144.484375 C 144.40625 147.921875 141.359375 150.28125 137.308594 150.710938 C 136.890625 150.753906 136.484375 150.777344 136.078125 150.777344 C 134.636719 150.777344 133.292969 150.476563 132.101563 149.945313 C 129.816406 151.515625 127.144531 152.574219 124.230469 153.042969 C 123.265625 153.191406 122.296875 153.273438 121.363281 153.273438 C 119.671875 153.273438 118.0625 153.015625 116.558594 152.546875 C 115.054688 159.699219 110.179688 165.1875 103.195313 166.929688 C 101.796875 167.277344 100.351563 167.457031 98.882813 167.457031 C 96.707031 167.457031 94.523438 167.0625 92.40625 166.300781 C 90.074219 165.4375 88.25 163.800781 87.140625 161.65625 C 86.332031 161.792969 85.558594 161.859375 84.796875 161.859375 C 84.335938 161.859375 83.886719 161.839844 83.453125 161.789063 C 81.972656 163.277344 80.242188 164.398438 78.394531 165.042969 C 77.082031 165.484375 75.71875 165.714844 74.332031 165.714844 C 72.976563 165.714844 71.652344 165.503906 70.382813 165.105469 C 68.574219 167.710938 65.855469 169.949219 62.371094 171.503906 C 61.707031 171.804688 61.046875 172.050781 60.386719 172.269531 C 61.066406 176.746094 58.945313 181.113281 54.550781 183.550781 L 42.777344 190.078125 C 41.269531 190.914063 39.238281 191.871094 36.886719 191.871094 "/>
<path style=" stroke:none;fill-rule:evenodd;fill:rgb(100%,100%,100%);fill-opacity:1;" d="M 57.722656 97.859375 C 52.824219 99.355469 49.296875 95.953125 47.898438 91.363281 C 46.261719 86.027344 46.90625 77.445313 53.675781 75.382813 C 55.40625 74.851563 57.566406 74.578125 59.890625 75.816406 C 60.894531 76.386719 61.945313 76.460938 62.828125 76.1875 C 64.925781 75.546875 65.804688 73.183594 65.179688 71.132813 C 63.988281 67.214844 57.335938 66.175781 52.300781 67.714844 C 41.082031 71.144531 37.378906 83.871094 40.65625 94.605469 C 43.078125 102.527344 49.535156 108.347656 59.015625 105.449219 C 68.640625 102.503906 72.824219 92.953125 69.925781 83.464844 C 69.234375 81.191406 67.914063 79.597656 64.484375 80.652344 L 55.535156 83.386719 C 53.082031 84.132813 51.5625 86.152344 52.417969 88.960938 C 53.003906 90.875 54.480469 91.550781 56.84375 90.828125 L 63.292969 88.847656 C 63.695313 93.351563 61.773438 96.621094 57.722656 97.859375 "/>
<path style=" stroke:none;fill-rule:evenodd;fill:rgb(100%,100%,100%);fill-opacity:1;" d="M 70.066406 64.96875 C 70.40625 66.71875 71.988281 67.816406 73.769531 67.46875 C 75.933594 67.050781 77.273438 64.820313 76.886719 62.847656 C 76.542969 61.109375 74.984375 60.074219 73.164063 60.4375 C 71.265625 60.808594 69.859375 62.648438 70.066406 64.96875 Z M 71.347656 73.449219 C 72.574219 87.554688 72.617188 87.832031 72.679688 88.136719 C 73.300781 91.3125 75.621094 92.90625 79.917969 92.078125 C 81.894531 91.691406 83.242188 90.183594 82.832031 88.050781 C 82.519531 86.429688 81.300781 85.78125 79.371094 86.152344 C 78.824219 86.257813 78.648438 85.769531 78.570313 85.34375 L 78.515625 85.070313 C 77.355469 72.085938 77.363281 71.917969 77.332031 71.757813 C 77 70.054688 75.886719 69.46875 74.066406 69.824219 C 72.128906 70.203125 71.152344 71.398438 71.347656 73.449219 "/>
<path style=" stroke:none;fill-rule:evenodd;fill:rgb(100%,100%,100%);fill-opacity:1;" d="M 122.144531 67.445313 C 123.558594 67.34375 124.980469 67.878906 126.089844 67.796875 C 127.734375 67.6875 128.84375 66.554688 128.894531 64.652344 C 128.824219 63.613281 128.015625 62.742188 126.902344 62.292969 C 125.367188 61.691406 123.722656 61.652344 122.308594 61.753906 C 115.835938 62.195313 111.117188 68.363281 111.570313 74.859375 C 111.972656 80.546875 116.164063 84.441406 121.625 84.054688 C 123.34375 83.941406 125.199219 83.363281 126.9375 82.042969 C 127.894531 81.339844 128.550781 80.507813 128.5625 79.097656 C 128.46875 77.722656 127.203125 76.765625 126.011719 76.847656 C 125.644531 76.867188 125.09375 77.019531 124.671875 77.351563 C 123.78125 78.003906 122.757813 78.308594 121.859375 78.367188 C 119.480469 78.535156 117.558594 76.609375 117.367188 73.941406 C 117.171875 71.148438 118.835938 67.671875 122.144531 67.445313 "/>
<path style=" stroke:none;fill-rule:evenodd;fill:rgb(100%,100%,100%);fill-opacity:1;" d="M 139.300781 77.792969 C 137.3125 77.835938 136.378906 75.855469 136.335938 73.511719 C 136.292969 71.308594 137.410156 66.730469 140.375 66.675781 C 141.996094 66.652344 143.476563 68.320313 143.527344 71.214844 C 143.570313 73.53125 142.34375 77.75 139.300781 77.792969 Z M 147.191406 61.347656 C 145.414063 61.382813 144.3125 62.339844 144.09375 64.117188 C 143.117188 62.257813 141.113281 61.414063 139.382813 61.449219 C 133.339844 61.554688 130.574219 68.90625 130.667969 74.1875 C 130.765625 79.71875 133.902344 83.277344 137.410156 83.222656 C 139.359375 83.1875 141.613281 81.839844 143.242188 79.71875 C 143.816406 81.8125 145.394531 82.972656 148.722656 82.90625 C 150.566406 82.882813 152.03125 81.730469 151.992188 79.746094 C 151.964844 78.230469 150.976563 77.445313 149.171875 77.480469 C 148.8125 77.484375 148.589844 77.3125 148.585938 76.949219 C 149.730469 64.015625 149.765625 63.871094 149.765625 63.730469 C 149.734375 62.175781 148.851563 61.320313 147.191406 61.347656 "/>
<path style=" stroke:none;fill-rule:evenodd;fill:rgb(62.69989%,81.199646%,40.39917%);fill-opacity:1;" d="M 83.445313 102.710938 C 84.320313 103.0625 85.175781 103.230469 86.222656 102.933594 C 88.183594 102.378906 89.429688 100.128906 88.914063 98.304688 C 88.632813 97.324219 87.789063 96.617188 86.59375 96.183594 C 84.257813 95.289063 81.621094 95.222656 78.988281 95.980469 C 72.863281 97.738281 69.285156 103.199219 70.816406 108.542969 C 72.105469 113.054688 77.113281 113.835938 81.390625 114.414063 C 84.777344 114.882813 86.070313 115.453125 86.457031 116.816406 C 86.824219 119.050781 85.015625 120.761719 82.722656 121.417969 C 81.382813 121.804688 79.847656 121.792969 78.625 121.445313 C 77.75 121.246094 76.859375 121.257813 76.015625 121.492188 C 73.84375 122.113281 72.945313 123.359375 73.378906 125.820313 C 73.679688 126.878906 74.429688 127.605469 75.714844 127.980469 C 78.230469 128.734375 80.9375 128.742188 83.773438 127.925781 C 90.15625 126.097656 95.113281 120.082031 93.25 113.597656 C 92.105469 109.578125 88.375 108.558594 83.316406 107.746094 C 80.617188 107.324219 78.132813 107.464844 77.578125 105.535156 C 77.308594 103.800781 78.292969 102.992188 80 102.496094 C 81.207031 102.15625 82.328125 102.28125 83.445313 102.710938 "/>
<path style=" stroke:none;fill-rule:evenodd;fill:rgb(56.898499%,78.399658%,28.199768%);fill-opacity:1;" d="M 93.917969 96.433594 C 95.820313 120.777344 95.863281 121.21875 95.9375 121.601563 C 96.257813 123.226563 97.074219 123.550781 99.625 123.058594 L 111.933594 120.664063 C 114.234375 120.214844 115.738281 118.636719 115.269531 116.242188 C 114.941406 114.53125 113.667969 113.898438 111.414063 114.335938 L 102.34375 116.09375 L 101.847656 109.679688 L 108.703125 108.347656 C 110.996094 107.902344 112.265625 106.210938 111.835938 104.007813 C 111.496094 102.253906 110.308594 101.613281 108.214844 102.015625 L 101.367188 103.34375 L 100.945313 98.003906 L 109.71875 96.300781 C 112.019531 95.851563 113.28125 94.199219 112.832031 91.839844 C 112.488281 90.132813 111.324219 89.554688 109.238281 89.964844 L 97.222656 92.300781 C 94.882813 92.753906 93.742188 94.136719 93.917969 96.433594 "/>
<path style=" stroke:none;fill-rule:evenodd;fill:rgb(56.898499%,78.399658%,28.199768%);fill-opacity:1;" d="M 117.519531 92.914063 C 116.847656 116.6875 116.867188 116.878906 116.886719 117.070313 C 117.03125 118.753906 118.113281 119.507813 120.171875 119.324219 C 122.398438 119.132813 123.53125 117.996094 123.59375 115.867188 L 123.984375 101.472656 L 135.230469 116.195313 C 136.089844 117.316406 137.359375 117.816406 138.75 117.699219 C 140.972656 117.511719 142.144531 116.285156 142.199219 114.050781 C 142.828125 90.320313 142.855469 90.125 142.84375 89.972656 C 142.691406 88.25 141.609375 87.5 139.507813 87.683594 C 137.320313 87.871094 136.199219 89.015625 136.128906 91.09375 L 135.71875 105.757813 L 124.59375 90.984375 C 123.640625 89.726563 122.398438 89.140625 120.933594 89.269531 C 118.742188 89.457031 117.578125 90.679688 117.519531 92.914063 "/>
<path style=" stroke:none;fill-rule:evenodd;fill:rgb(56.898499%,78.399658%,28.199768%);fill-opacity:1;" d="M 145.214844 111.664063 C 144.675781 112.296875 144.347656 113.082031 144.230469 113.933594 C 144.183594 114.160156 144.183594 114.347656 144.183594 114.53125 C 144.183594 116.25 145.214844 117.101563 147.09375 117.101563 L 163.9375 117.101563 C 166.148438 117.101563 167.382813 116.101563 167.628906 114.050781 C 167.628906 113.902344 167.667969 113.753906 167.667969 113.601563 C 167.667969 112 166.605469 111.148438 164.589844 111.148438 L 153.570313 111.148438 L 168.449219 93.597656 C 169.140625 92.773438 169.714844 91.84375 169.796875 90.953125 C 169.796875 90.800781 169.839844 90.695313 169.839844 90.539063 C 169.839844 89.164063 168.8125 88.125 166.316406 88.125 L 151.066406 88.113281 C 148.851563 88.113281 147.664063 89.089844 147.421875 91.136719 C 147.382813 91.324219 147.382813 91.507813 147.382813 91.695313 C 147.382813 93.261719 148.363281 94.082031 150.375 94.082031 L 160.039063 94.082031 "/>
<path style=" stroke:none;fill-rule:evenodd;fill:rgb(56.898499%,78.399658%,28.199768%);fill-opacity:1;" d="M 187.417969 116.816406 C 187.671875 118.027344 188.609375 118.769531 190.109375 118.902344 C 192.089844 119.074219 193.417969 117.996094 193.765625 116.3125 C 193.804688 115.886719 193.535156 114.011719 189.515625 93.21875 C 189.191406 91.488281 188 90.511719 186.171875 90.351563 C 184.351563 90.195313 182.855469 90.933594 181.835938 92.542969 L 169.144531 112.992188 C 168.902344 113.453125 168.664063 113.933594 168.605469 114.578125 C 168.488281 115.878906 169.1875 117.0625 171.132813 117.230469 C 172.753906 117.382813 174.050781 116.699219 174.945313 115.175781 C 175.488281 114.351563 176.007813 113.492188 176.570313 112.59375 L 186.671875 113.480469 Z M 184.160156 100.191406 C 184.8125 104.09375 185.007813 104.582031 185.476563 107.5 L 179.847656 107 "/>
<path style=" stroke:none;fill-rule:evenodd;fill:rgb(100%,100%,100%);fill-opacity:1;" d="M 23.96875 156.320313 C 35.257813 182.816406 35.464844 183.289063 35.691406 183.699219 C 36.636719 185.410156 37.597656 185.507813 40.042969 184.160156 L 51.816406 177.636719 C 54.015625 176.414063 54.960938 174.191406 53.5625 171.65625 C 52.570313 169.867188 51.015625 169.554688 48.855469 170.757813 L 40.175781 175.566406 L 37.21875 168.582031 L 43.769531 164.945313 C 45.96875 163.726563 46.621094 161.449219 45.335938 159.128906 C 44.320313 157.292969 42.851563 156.9375 40.851563 158.050781 L 34.292969 161.683594 L 31.816406 155.863281 L 40.203125 151.214844 C 42.40625 150 43.078125 147.757813 41.703125 145.273438 C 40.714844 143.476563 39.28125 143.214844 37.285156 144.3125 L 25.800781 150.683594 C 23.5625 151.929688 22.910156 153.828125 23.96875 156.320313 "/>
<path style=" stroke:none;fill-rule:evenodd;fill:rgb(100%,100%,100%);fill-opacity:1;" d="M 59.164063 160.023438 C 56.351563 161.28125 54.609375 159.683594 52.441406 160.644531 C 51.140625 161.21875 50.109375 162.585938 50.78125 164.574219 C 51.121094 165.335938 51.726563 166.015625 52.566406 166.15625 C 55 166.59375 57.4375 166.535156 60.175781 165.3125 C 64.175781 163.535156 68.234375 159.441406 66.082031 154.617188 C 63.671875 149.214844 53.820313 152.300781 52.730469 149.859375 C 52.402344 148.828125 53.019531 148.171875 53.953125 147.75 C 56.117188 146.792969 57.894531 147.289063 59.765625 146.460938 C 61.386719 145.734375 61.867188 144.1875 61.386719 142.714844 C 61.03125 141.921875 60.324219 141.292969 59.226563 141.164063 C 57.03125 140.984375 54.890625 141.511719 53.011719 142.339844 C 48.761719 144.230469 45.875 148.324219 47.375 152.964844 C 49.753906 158.300781 58.992188 155.957031 60.492188 157.878906 C 60.800781 158.863281 60.167969 159.585938 59.164063 160.023438 "/>
<path style=" stroke:none;fill-rule:evenodd;fill:rgb(100%,100%,100%);fill-opacity:1;" d="M 76.898438 152.363281 C 74.847656 153.074219 73.203125 151.339844 72.371094 148.914063 C 71.585938 146.636719 71.207031 141.523438 74.253906 140.46875 C 75.933594 139.886719 78.035156 141.125 79.058594 144.113281 C 79.882813 146.5 80.03125 151.285156 76.898438 152.363281 Z M 79.535156 132.636719 C 77.707031 133.269531 76.878906 134.636719 77.25 136.554688 C 75.613281 134.949219 73.253906 134.761719 71.464844 135.382813 C 65.230469 137.527344 64.84375 146.082031 66.71875 151.53125 C 68.691406 157.242188 73.144531 159.871094 76.761719 158.625 C 78.78125 157.9375 80.664063 155.777344 81.632813 153.03125 C 82.933594 154.996094 84.96875 155.679688 88.390625 154.496094 C 90.296875 153.84375 91.429688 152.164063 90.722656 150.109375 C 90.179688 148.542969 88.894531 148.070313 87.027344 148.714844 C 86.652344 148.839844 86.371094 148.722656 86.234375 148.355469 C 83.074219 134.550781 83.058594 134.394531 83.003906 134.246094 C 82.453125 132.636719 81.25 132.050781 79.535156 132.636719 "/>
<path style=" stroke:none;fill-rule:evenodd;fill:rgb(100%,100%,100%);fill-opacity:1;" d="M 100.433594 145.210938 C 98.328125 145.734375 96.84375 143.859375 96.222656 141.375 C 95.640625 139.042969 95.707031 133.90625 98.84375 133.125 C 100.5625 132.695313 102.546875 134.113281 103.308594 137.171875 C 103.914063 139.617188 103.648438 144.40625 100.433594 145.210938 Z M 102.203125 129.476563 C 100.710938 127.730469 98.335938 127.351563 96.5 127.804688 C 90.523438 129.296875 88.976563 137.898438 90.355469 143.449219 C 91.800781 149.230469 95.976563 151.96875 99.691406 151.042969 C 101.757813 150.523438 103.738281 149.179688 104.859375 146.015625 C 105.453125 150.175781 105.046875 153.117188 101.640625 153.96875 C 100.570313 154.234375 99.394531 154.242188 98.257813 153.925781 C 97.605469 153.757813 96.957031 153.472656 96.042969 153.699219 C 94.167969 154.164063 93.316406 155.960938 93.582031 157.851563 C 93.804688 158.769531 94.378906 159.566406 95.355469 159.925781 C 97.6875 160.765625 100.027344 160.875 102.140625 160.351563 C 107.640625 158.980469 111.734375 153.371094 110.582031 145.152344 C 108.136719 128 108.136719 127.839844 108.097656 127.6875 C 107.683594 126.042969 106.542969 125.351563 104.773438 125.78125 C 102.820313 126.277344 101.90625 127.640625 102.207031 129.675781 "/>
<path style=" stroke:none;fill-rule:evenodd;fill:rgb(100%,100%,100%);fill-opacity:1;" d="M 118.847656 132.710938 C 118.734375 130.324219 120.585938 128.746094 122.328125 128.476563 C 123.882813 128.230469 125.480469 128.980469 125.8125 131.066406 C 125.835938 131.21875 125.859375 131.410156 125.855469 131.601563 Z M 121.992188 122.894531 C 115.28125 123.957031 111.917969 131.445313 112.941406 137.84375 C 113.816406 143.375 117.660156 147.3125 123.757813 146.351563 C 127.238281 145.796875 129.996094 144.03125 131.738281 141.347656 C 132.230469 140.734375 132.332031 140.164063 132.296875 139.472656 C 132.105469 138.261719 131.601563 137.023438 130.011719 137.277344 C 128.007813 137.597656 126.9375 140.164063 124.019531 140.632813 C 122.464844 140.878906 119.265625 140.296875 118.792969 137.269531 C 118.761719 137.113281 118.773438 136.917969 118.742188 136.769531 L 127.425781 135.394531 C 130.34375 134.929688 132.117188 134.652344 131.960938 131.6875 C 131.953125 131.144531 131.867188 130.621094 131.785156 130.121094 C 130.992188 125.085938 127.519531 122.019531 121.992188 122.894531 "/>
<path style=" stroke:none;fill-rule:evenodd;fill:rgb(100%,100%,100%);fill-opacity:1;" d="M 134.320313 125.539063 C 134.320313 141.570313 134.339844 141.757813 134.359375 141.941406 C 134.519531 143.46875 135.488281 144.144531 137.1875 143.96875 C 139.160156 143.761719 140.058594 142.695313 140.046875 140.785156 L 140.03125 130.335938 C 140.046875 128.683594 141.664063 127.351563 143.070313 127.207031 C 143.738281 127.136719 144.433594 127.289063 145.289063 127.195313 C 146.984375 127.019531 148.386719 125.382813 148.199219 123.597656 C 148.050781 122.183594 146.875 120.925781 144.128906 121.210938 C 142.570313 121.371094 140.171875 123.160156 139.5625 124.460938 L 139.542969 124.277344 C 139.371094 122.652344 138.269531 122.125 137.15625 122.253906 C 135.265625 122.445313 134.328125 123.515625 134.320313 125.539063 "/>
<path style=" stroke:none;fill-rule:evenodd;fill:rgb(100%,100%,100%);fill-opacity:1;" d="M 158.28125 137.367188 C 156.292969 137.433594 155.320313 135.480469 155.242188 133.136719 C 155.160156 130.925781 156.195313 126.335938 159.15625 126.230469 C 160.78125 126.167969 162.285156 127.820313 162.386719 130.710938 C 162.46875 133.019531 161.3125 137.253906 158.28125 137.367188 Z M 165.875 120.777344 C 164.109375 120.847656 163.019531 121.820313 162.824219 123.609375 C 161.828125 121.753906 159.808594 120.957031 158.070313 121.019531 C 152.039063 121.226563 149.398438 128.628906 149.582031 133.90625 C 149.777344 139.4375 152.972656 142.949219 156.480469 142.820313 C 158.429688 142.75 160.664063 141.371094 162.253906 139.222656 C 162.863281 141.296875 164.464844 142.433594 167.789063 142.316406 C 169.628906 142.257813 171.070313 141.078125 171.007813 139.089844 C 170.953125 137.578125 169.953125 136.8125 168.136719 136.875 C 167.78125 136.894531 167.554688 136.71875 167.542969 136.355469 C 168.460938 123.40625 168.5 123.257813 168.488281 123.113281 C 168.4375 121.558594 167.539063 120.726563 165.875 120.777344 "/>
<path style=" stroke:none;fill-rule:evenodd;fill:rgb(100%,100%,100%);fill-opacity:1;" d="M 177.1875 124.554688 C 174.566406 139.421875 174.554688 139.59375 174.539063 139.765625 C 174.4375 141.199219 175.230469 141.992188 176.835938 142.109375 C 178.691406 142.234375 179.699219 141.390625 179.992188 139.617188 L 181.691406 129.929688 C 181.984375 128.410156 183.695313 127.4375 185.027344 127.53125 C 185.652344 127.570313 186.269531 127.824219 187.078125 127.890625 C 188.6875 128 190.253906 126.707031 190.367188 125.019531 C 190.457031 123.691406 189.574219 122.328125 186.984375 122.148438 C 185.519531 122.046875 183.003906 123.3125 182.226563 124.417969 L 182.238281 124.242188 C 182.339844 122.699219 181.402344 122.039063 180.351563 121.96875 C 178.574219 121.84375 177.523438 122.683594 177.1875 124.554688 "/>
<path style=" stroke:none;fill-rule:evenodd;fill:rgb(100%,100%,100%);fill-opacity:1;" d="M 196.382813 131.664063 C 196.910156 129.613281 198.882813 128.753906 200.429688 128.976563 C 201.8125 129.164063 202.964844 130.226563 202.707031 132.074219 C 202.6875 132.207031 202.664063 132.375 202.609375 132.542969 Z M 201.585938 124.164063 C 195.636719 123.324219 190.851563 128.792969 190.054688 134.480469 C 189.363281 139.386719 191.605469 143.710938 197.023438 144.476563 C 200.117188 144.917969 202.898438 144.144531 205.074219 142.316406 C 205.640625 141.917969 205.882813 141.472656 206.035156 140.875 C 206.1875 139.796875 206.070313 138.613281 204.660156 138.414063 C 202.878906 138.175781 201.308594 140.070313 198.71875 139.714844 C 197.339844 139.519531 194.777344 138.195313 195.160156 135.5 C 195.179688 135.371094 195.238281 135.210938 195.253906 135.074219 L 202.953125 136.15625 C 205.546875 136.519531 207.128906 136.738281 207.757813 134.1875 C 207.898438 133.726563 207.957031 133.257813 208.019531 132.820313 C 208.652344 128.347656 206.5 124.851563 201.585938 124.164063 "/>
<path style=" stroke:none;fill-rule:nonzero;fill:rgb(56.898499%,78.399658%,28.199768%);fill-opacity:1;" d="M 96.167969 78.238281 C 94.597656 79.351563 91.753906 77.957031 92.1875 75.183594 C 92.476563 73.230469 94.679688 71.558594 97.140625 71.835938 C 99.320313 72.085938 101.378906 74.625 100.316406 77.957031 C 98.800781 82.699219 93.824219 84.496094 89.878906 82.972656 C 86.980469 81.859375 84.445313 78.507813 85.476563 73.507813 C 86.351563 69.242188 90.824219 63.867188 97.296875 62.917969 C 99.113281 62.652344 102.171875 62.652344 104.507813 63.765625 C 103.246094 62.929688 102.035156 62.476563 100.324219 62.109375 C 92.566406 60.457031 85.511719 64.960938 82.632813 72.117188 C 79.488281 79.910156 84.03125 84.886719 86.296875 86.304688 C 91.636719 89.652344 102.273438 86.585938 104.324219 77.6875 C 105.15625 74.0625 103.308594 70.179688 99.207031 69.332031 C 95.15625 68.496094 91.796875 71.835938 91.472656 74.339844 C 90.941406 78.515625 94.882813 79.351563 96.167969 78.238281 "/>
<path style=" stroke:none;fill-rule:nonzero;fill:rgb(26.298523%,71.398926%,28.599548%);fill-opacity:1;" d="M 94.710938 73.230469 C 96.269531 72.117188 99.121094 73.507813 98.695313 76.292969 C 98.394531 78.238281 96.183594 79.910156 93.726563 79.632813 C 91.546875 79.386719 89.488281 76.847656 90.554688 73.507813 C 92.074219 68.769531 97.046875 66.980469 100.996094 68.496094 C 103.894531 69.605469 106.429688 72.957031 105.398438 77.957031 C 104.515625 82.21875 100.046875 87.605469 93.582031 88.550781 C 91.761719 88.816406 88.707031 88.816406 86.367188 87.703125 C 87.625 88.542969 88.832031 89.003906 90.550781 89.363281 C 98.308594 90.980469 105.355469 86.507813 108.242188 79.351563 C 111.390625 71.558594 106.839844 66.574219 104.570313 65.152344 C 99.242188 61.816406 88.59375 64.890625 86.550781 73.785156 C 85.714844 77.402344 87.566406 81.285156 91.671875 82.132813 C 95.722656 82.972656 99.082031 79.632813 99.398438 77.132813 C 99.929688 72.953125 95.988281 72.117188 94.710938 73.230469 "/>
</g>
</svg>
